HIERARCHY
ROOT newVegas:Hips
{
	OFFSET 0.000000 96.479958 0.000000
	CHANNELS 6 Xposition Yposition Zposition Xrotation Yrotation Zrotation
	JOINT newVegas:Pelvis
	{
		OFFSET 0.000000 0.000000 0.000000
		CHANNELS 3 Xrotation Yrotation Zrotation
		JOINT newVegas:LeftUpLeg
		{
			OFFSET 18.735201 -5.666702 -4.541200
			CHANNELS 3 Xrotation Yrotation Zrotation
			JOINT newVegas:LeftLeg
			{
				OFFSET -0.021200 -31.938179 0.493100
				CHANNELS 3 Xrotation Yrotation Zrotation
				JOINT newVegas:LeftFoot
				{
					OFFSET 0.021200 -31.938179 -4.336299
					CHANNELS 3 Xrotation Yrotation Zrotation
					JOINT newVegas:LeftToeBase
					{
						OFFSET 0.943001 -26.722000 15.023500
						CHANNELS 3 Xrotation Yrotation Zrotation
						End Site
						{
							OFFSET 0.000000 30.670183 0.000000
						}
					}
				}
				JOINT newVegas:Left_PantLeg
				{
					OFFSET 0.663870 -9.044666 -1.108900
					CHANNELS 3 Xrotation Yrotation Zrotation
					End Site
					{
						OFFSET 1.415995 20.635357 0.000000
					}
				}
			}
		}
		JOINT newVegas:RightUpLeg
		{
			OFFSET -18.735201 -5.666702 -4.541200
			CHANNELS 3 Xrotation Yrotation Zrotation
			JOINT newVegas:RightLeg
			{
				OFFSET 0.018946 -31.938133 0.493100
				CHANNELS 3 Xrotation Yrotation Zrotation
				JOINT newVegas:RightFoot
				{
					OFFSET -0.018946 -31.938126 -4.336299
					CHANNELS 3 Xrotation Yrotation Zrotation
					JOINT newVegas:RightToeBase
					{
						OFFSET -0.943001 -26.722004 15.023500
						CHANNELS 3 Xrotation Yrotation Zrotation
						End Site
						{
							OFFSET 0.000000 30.670187 0.000000
						}
					}
				}
				JOINT newVegas:Right_PantLeg
				{
					OFFSET -0.661674 -9.044716 -1.108900
					CHANNELS 3 Xrotation Yrotation Zrotation
					End Site
					{
						OFFSET -1.415958 20.635269 0.000000
					}
				}
			}
		}
	}
	JOINT newVegas:Spine
	{
		OFFSET 0.000000 10.199997 -0.299500
		CHANNELS 3 Xrotation Yrotation Zrotation
		JOINT newVegas:Spine1
		{
			OFFSET 0.000000 11.900002 -1.516600
			CHANNELS 3 Xrotation Yrotation Zrotation
			JOINT newVegas:Spine2
			{
				OFFSET 0.000000 13.600006 -2.842500
				CHANNELS 3 Xrotation Yrotation Zrotation
				JOINT newVegas:Neck
				{
					OFFSET 0.000000 9.624100 -2.890100
					CHANNELS 3 Xrotation Yrotation Zrotation
					JOINT newVegas:Head
					{
						OFFSET 0.000000 14.068802 -1.351900
						CHANNELS 3 Xrotation Yrotation Zrotation
						JOINT newVegas:Hair_Back
						{
							OFFSET 0.000000 3.231903 -17.524799
							CHANNELS 3 Xrotation Yrotation Zrotation
							End Site
							{
								OFFSET 0.000000 19.849884 0.000000
							}
						}
						JOINT newVegas:Hair_Front
						{
							OFFSET 0.000000 31.260406 4.573800
							CHANNELS 3 Xrotation Yrotation Zrotation
							JOINT newVegas:Hair_Front1
							{
								OFFSET 0.000000 2.284103 11.993300
								CHANNELS 3 Xrotation Yrotation Zrotation
								JOINT newVegas:Hair_Front2
								{
									OFFSET 0.000000 2.284103 11.993300
									CHANNELS 3 Xrotation Yrotation Zrotation
									End Site
									{
										OFFSET 0.000000 12.208862 0.000000
									}
								}
							}
						}
						JOINT newVegas:Jowel
						{
							OFFSET 0.000000 -7.458206 6.864100
							CHANNELS 3 Xrotation Yrotation Zrotation
							End Site
							{
								OFFSET 0.000000 19.849884 0.000000
							}
						}
					}
				}
				JOINT newVegas:LeftShoulder
				{
					OFFSET 15.263000 10.923401 -0.547700
					CHANNELS 3 Xrotation Yrotation Zrotation
					JOINT newVegas:LeftArm
					{
						OFFSET 25.438599 -2.830597 -13.032500
						CHANNELS 3 Xrotation Yrotation Zrotation
						JOINT newVegas:LeftForeArm
						{
							OFFSET 29.960503 0.000000 0.000000
							CHANNELS 3 Xrotation Yrotation Zrotation
							JOINT newVegas:LeftHand
							{
								OFFSET 27.849251 0.000000 0.000000
								CHANNELS 3 Xrotation Yrotation Zrotation
								JOINT newVegas:LeftHandThumb1
								{
									OFFSET 4.487587 -3.305161 6.305391
									CHANNELS 3 Xrotation Yrotation Zrotation
									JOINT newVegas:LeftHandThumb2
									{
										OFFSET 5.480453 -3.164139 3.164143
										CHANNELS 3 Xrotation Yrotation Zrotation
										JOINT newVegas:LeftHandThumb3
										{
											OFFSET 5.159721 -2.978973 2.978967
											CHANNELS 3 Xrotation Yrotation Zrotation
											End Site
											{
												OFFSET 2.494507 5.926697 1.738678
											}
										}
									}
								}
								JOINT newVegas:LeftHandIndex1
								{
									OFFSET 18.578728 -0.527832 5.208049
									CHANNELS 3 Xrotation Yrotation Zrotation
									JOINT newVegas:LeftHandIndex2
									{
										OFFSET 3.192009 0.000000 0.000000
										CHANNELS 3 Xrotation Yrotation Zrotation
										JOINT newVegas:LeftHandIndex3
										{
											OFFSET 3.835129 0.000000 0.000000
											CHANNELS 3 Xrotation Yrotation Zrotation
											End Site
											{
												OFFSET -0.034599 3.816971 0.371180
											}
										}
									}
								}
								JOINT newVegas:LeftHandMiddle1
								{
									OFFSET 18.476105 0.000000 0.000000
									CHANNELS 3 Xrotation Yrotation Zrotation
									JOINT newVegas:LeftHandMiddle2
									{
										OFFSET 3.324875 0.000000 0.000000
										CHANNELS 3 Xrotation Yrotation Zrotation
										JOINT newVegas:LeftHandMiddle3
										{
											OFFSET 4.596550 0.000000 0.000000
											CHANNELS 3 Xrotation Yrotation Zrotation
											End Site
											{
												OFFSET 0.057701 4.578827 0.399218
											}
										}
									}
								}
								JOINT newVegas:LeftHandRing1
								{
									OFFSET 17.732719 0.121887 -4.201567
									CHANNELS 3 Xrotation Yrotation Zrotation
									JOINT newVegas:LeftHandRing2
									{
										OFFSET 2.733170 0.000000 0.000000
										CHANNELS 3 Xrotation Yrotation Zrotation
										JOINT newVegas:LeftHandRing3
										{
											OFFSET 3.178268 0.000000 0.000000
											CHANNELS 3 Xrotation Yrotation Zrotation
											End Site
											{
												OFFSET 0.119102 3.170624 0.185394
											}
										}
									}
								}
								JOINT newVegas:LeftHandPinky1
								{
									OFFSET 15.989624 -0.606689 -7.535461
									CHANNELS 3 Xrotation Yrotation Zrotation
									JOINT newVegas:LeftHandPinky2
									{
										OFFSET 2.538986 0.000000 0.000000
										CHANNELS 3 Xrotation Yrotation Zrotation
										JOINT newVegas:LeftHandPinky3
										{
											OFFSET 2.593102 0.000000 0.000000
											CHANNELS 3 Xrotation Yrotation Zrotation
											End Site
											{
												OFFSET -0.150902 2.584198 0.152708
											}
										}
									}
								}
							}
							JOINT newVegas:Left_Sleeve
							{
								OFFSET 0.267448 -0.649796 0.577675
								CHANNELS 3 Xrotation Yrotation Zrotation
								End Site
								{
									OFFSET 0.000000 15.991241 0.000000
								}
							}
							JOINT newVegas:Left_CapeC
							{
								OFFSET 15.715958 -8.608795 -6.935905
								CHANNELS 3 Xrotation Yrotation Zrotation
								JOINT newVegas:Left_CapeC1
								{
									OFFSET 0.000000 -8.688499 0.000000
									CHANNELS 3 Xrotation Yrotation Zrotation
									End Site
									{
										OFFSET 0.000000 8.688499 0.000000
									}
								}
							}
						}
						JOINT newVegas:Left_CapeB
						{
							OFFSET 26.118385 -8.608795 -7.079235
							CHANNELS 3 Xrotation Yrotation Zrotation
							JOINT newVegas:Left_CapeB1
							{
								OFFSET 0.000000 -8.688499 0.000000
								CHANNELS 3 Xrotation Yrotation Zrotation
								End Site
								{
									OFFSET 0.000000 8.688499 0.000000
								}
							}
						}
						JOINT newVegas:Left_CapeA
						{
							OFFSET 5.115639 -8.608795 -10.395809
							CHANNELS 3 Xrotation Yrotation Zrotation
							JOINT newVegas:Left_CapeA1
							{
								OFFSET 0.000000 -8.688499 0.000000
								CHANNELS 3 Xrotation Yrotation Zrotation
								End Site
								{
									OFFSET 0.000000 8.688499 0.000000
								}
							}
						}
					}
				}
				JOINT newVegas:RightShoulder
				{
					OFFSET -15.263000 10.923401 -0.547700
					CHANNELS 3 Xrotation Yrotation Zrotation
					JOINT newVegas:RightArm
					{
						OFFSET -25.438599 -2.830597 -13.032500
						CHANNELS 3 Xrotation Yrotation Zrotation
						JOINT newVegas:RightForeArm
						{
							OFFSET -29.960503 0.000000 0.000000
							CHANNELS 3 Xrotation Yrotation Zrotation
							JOINT newVegas:RightHand
							{
								OFFSET -27.849251 0.000000 0.000000
								CHANNELS 3 Xrotation Yrotation Zrotation
								JOINT newVegas:RightHandThumb1
								{
									OFFSET -4.487587 -3.305161 6.305391
									CHANNELS 3 Xrotation Yrotation Zrotation
									JOINT newVegas:RightHandThumb2
									{
										OFFSET -5.480453 -3.164139 3.164143
										CHANNELS 3 Xrotation Yrotation Zrotation
										JOINT newVegas:RightHandThumb3
										{
											OFFSET -5.159721 -2.978973 2.978967
											CHANNELS 3 Xrotation Yrotation Zrotation
											End Site
											{
												OFFSET -2.494507 5.926697 1.738678
											}
										}
									}
								}
								JOINT newVegas:RightHandIndex1
								{
									OFFSET -18.578728 -0.527832 5.208049
									CHANNELS 3 Xrotation Yrotation Zrotation
									JOINT newVegas:RightHandIndex2
									{
										OFFSET -3.192009 0.000000 0.000000
										CHANNELS 3 Xrotation Yrotation Zrotation
										JOINT newVegas:RightHandIndex3
										{
											OFFSET -3.835129 0.000000 0.000000
											CHANNELS 3 Xrotation Yrotation Zrotation
											End Site
											{
												OFFSET 0.034599 3.816971 0.371180
											}
										}
									}
								}
								JOINT newVegas:RightHandMiddle1
								{
									OFFSET -18.476105 0.000000 0.000000
									CHANNELS 3 Xrotation Yrotation Zrotation
									JOINT newVegas:RightHandMiddle2
									{
										OFFSET -3.324875 0.000000 0.000000
										CHANNELS 3 Xrotation Yrotation Zrotation
										JOINT newVegas:RightHandMiddle3
										{
											OFFSET -4.596550 0.000000 0.000000
											CHANNELS 3 Xrotation Yrotation Zrotation
											End Site
											{
												OFFSET -0.057701 4.578827 0.399218
											}
										}
									}
								}
								JOINT newVegas:RightHandRing1
								{
									OFFSET -17.732719 0.121887 -4.201567
									CHANNELS 3 Xrotation Yrotation Zrotation
									JOINT newVegas:RightHandRing2
									{
										OFFSET -2.733170 0.000000 0.000000
										CHANNELS 3 Xrotation Yrotation Zrotation
										JOINT newVegas:RightHandRing3
										{
											OFFSET -3.178268 0.000000 0.000000
											CHANNELS 3 Xrotation Yrotation Zrotation
											End Site
											{
												OFFSET -0.119102 3.170624 0.185394
											}
										}
									}
								}
								JOINT newVegas:RightHandPinky1
								{
									OFFSET -15.989624 -0.606689 -7.535461
									CHANNELS 3 Xrotation Yrotation Zrotation
									JOINT newVegas:RightHandPinky2
									{
										OFFSET -2.538986 0.000000 0.000000
										CHANNELS 3 Xrotation Yrotation Zrotation
										JOINT newVegas:RightHandPinky3
										{
											OFFSET -2.593102 0.000000 0.000000
											CHANNELS 3 Xrotation Yrotation Zrotation
											End Site
											{
												OFFSET 0.150902 2.584198 0.152708
											}
										}
									}
								}
							}
							JOINT newVegas:Right_CapeC
							{
								OFFSET -15.715958 -8.608795 -6.935905
								CHANNELS 3 Xrotation Yrotation Zrotation
								JOINT newVegas:Right_CapeC1
								{
									OFFSET 0.000000 -8.688499 0.000000
									CHANNELS 3 Xrotation Yrotation Zrotation
									End Site
									{
										OFFSET 0.000000 8.688499 0.000000
									}
								}
							}
							JOINT newVegas:Right_Sleeve
							{
								OFFSET -0.267448 -0.649994 0.577675
								CHANNELS 3 Xrotation Yrotation Zrotation
								End Site
								{
									OFFSET 0.000000 15.991302 0.000000
								}
							}
						}
						JOINT newVegas:Right_CapeA
						{
							OFFSET -5.115540 -8.608795 -10.395824
							CHANNELS 3 Xrotation Yrotation Zrotation
							JOINT newVegas:Right_CapeA1
							{
								OFFSET 0.000000 -8.688499 0.000000
								CHANNELS 3 Xrotation Yrotation Zrotation
								End Site
								{
									OFFSET 0.000000 8.688499 0.000000
								}
							}
						}
						JOINT newVegas:Right_CapeB
						{
							OFFSET -26.118187 -8.608795 -7.079266
							CHANNELS 3 Xrotation Yrotation Zrotation
							JOINT newVegas:Right_CapeB1
							{
								OFFSET 0.000000 -8.688499 0.000000
								CHANNELS 3 Xrotation Yrotation Zrotation
								End Site
								{
									OFFSET 0.000000 8.688499 0.000000
								}
							}
						}
					}
				}
				JOINT newVegas:Left_Collar
				{
					OFFSET 18.625099 8.655502 8.828100
					CHANNELS 3 Xrotation Yrotation Zrotation
					JOINT newVegas:Left_Collar1
					{
						OFFSET 14.783401 10.540405 -1.259500
						CHANNELS 3 Xrotation Yrotation Zrotation
						End Site
						{
							OFFSET 0.000000 18.199875 0.000000
						}
					}
				}
				JOINT newVegas:Collar_Back
				{
					OFFSET 0.000000 15.630707 -20.132601
					CHANNELS 3 Xrotation Yrotation Zrotation
					End Site
					{
						OFFSET 0.000000 22.523010 0.000000
					}
				}
				JOINT newVegas:Left_Peck
				{
					OFFSET 17.239599 -5.132599 25.482599
					CHANNELS 3 Xrotation Yrotation Zrotation
					End Site
					{
						OFFSET 0.000000 22.523010 0.000000
					}
				}
				JOINT newVegas:Right_Peck
				{
					OFFSET -17.239599 -5.132202 25.482599
					CHANNELS 3 Xrotation Yrotation Zrotation
					End Site
					{
						OFFSET 0.000000 22.523010 0.000000
					}
				}
				JOINT newVegas:Right_Collar
				{
					OFFSET -18.625099 8.655792 8.828100
					CHANNELS 3 Xrotation Yrotation Zrotation
					JOINT newVegas:Right_Collar1
					{
						OFFSET -14.783401 10.539993 -1.259500
						CHANNELS 3 Xrotation Yrotation Zrotation
						End Site
						{
							OFFSET 0.000000 18.199631 0.000000
						}
					}
				}
			}
		}
		JOINT newVegas:Belly
		{
			OFFSET 0.000000 -6.540398 9.014299
			CHANNELS 3 Xrotation Yrotation Zrotation
			End Site
			{
				OFFSET 0.000000 11.566666 0.000000
			}
		}
	}
	JOINT newVegas:ElvisFacialAnim_Joint
	{
		OFFSET 1.000000 -95.330101 -8.825800
		CHANNELS 3 Xrotation Yrotation Zrotation
		End Site
		{
			OFFSET 0.000000 35.315800 0.000000
		}
	}
}
MOTION
Frames: 4
Frame Time: 0.033333
-2.529500 83.444199 1.048865 9.511138 -61.528332 10.139751 -0.000000 0.000000 -0.000000 -41.483885 6.895917 29.341314 42.476134 -8.847764 1.132519 -6.286141 -1.078455 -21.276302 -0.000000 0.000000 0.000000 0.000001 -0.000002 -0.000001 -31.349257 -15.812364 -39.180274 41.611811 6.255276 -4.183847 -15.613121 -2.028558 28.891622 0.000000 -0.000000 -0.000000 0.000001 -0.000000 -0.000002 15.067148 -0.417396 -4.277947 5.872797 0.571184 -2.801482 5.868643 0.648862 -2.855445 -0.719134 0.307217 0.742080 -0.719114 0.307207 0.742078 -0.000002 0.000000 -0.000001 -0.719188 0.307189 0.742080 -0.719092 0.307217 0.742084 -0.000002 0.000001 -0.000001 -0.000002 0.000000 -0.000000 1.828170 -3.192715 -12.271581 -39.387423 26.350484 -34.911221 0.429354 -46.808383 0.416174 -10.315020 -0.130976 0.363055 40.109893 -15.297131 -0.360467 5.639791 28.097875 11.338829 0.000002 0.000000 -0.000004 6.882206 2.840070 -61.140432 8.247968 7.640075 -89.897837 -0.000003 0.000001 0.000000 -2.345611 4.688884 -62.655210 8.754199 9.897097 -87.051287 0.000004 0.000000 0.000001 -9.042494 10.045688 -60.766144 8.524081 9.508814 -66.893008 -0.000001 0.000003 0.000001 -17.946954 14.754962 -51.485860 8.868390 8.667049 -84.812037 -0.000001 -0.000005 0.000001 0.000002 0.000000 -0.000000 0.000002 0.000000 -0.000000 0.000001 0.000001 -0.000000 -0.000000 0.000001 0.000000 0.000000 0.000001 -0.000003 -0.000000 0.000001 0.000000 -0.000001 0.000001 -0.000000 0.631512 7.257301 8.703764 7.936342 -9.680247 53.430002 -22.866447 36.192291 17.964089 -27.375354 10.434421 -17.812713 -2.346161 -6.100516 10.731441 2.364024 -23.806307 -8.771111 0.000002 -0.000000 -0.000001 -0.054747 0.532146 0.738714 0.019747 -0.087348 5.078567 0.000001 -0.000001 0.000003 0.348234 -5.918537 2.583834 1.432622 -4.204179 24.052084 0.000001 0.000003 -0.000000 1.205813 -11.756090 4.154744 1.794877 -3.771855 26.865432 0.000001 0.000001 0.000001 2.126193 -19.166877 11.319926 3.354781 -2.122215 18.828583 0.000001 -0.000000 0.000001 -0.000001 0.000001 0.000003 -0.000001 0.000001 0.000001 -0.000001 0.000001 0.000002 -0.000002 0.000002 0.000001 -0.000002 0.000003 0.000002 -0.000002 0.000002 0.000001 -0.000002 0.000003 0.000002 -0.000000 -0.000003 0.000002 -0.000000 -0.000003 0.000002 -0.000000 -0.000003 0.000002 -0.000000 -0.000003 0.000002 -0.000000 -0.000003 0.000002 -0.000000 -0.000003 0.000002 -0.000000 -0.000003 0.000002 0.000002 -0.000001 0.000001 -0.000000 0.000000 -0.000000 
-2.507892 83.222885 1.302276 9.369543 -61.525477 10.059561 -0.000000 0.000000 -0.000000 -41.904389 6.456643 29.329235 43.903947 -6.150786 1.345156 -7.113397 -3.605779 -21.730300 0.000000 0.000000 -0.000000 0.000000 0.000002 -0.000000 -31.244567 -15.387894 -39.605081 41.793859 4.001824 -4.174543 -15.762244 -0.007203 29.997983 0.000000 0.000000 -0.000000 0.000003 0.000000 0.000001 15.542746 -0.002758 -4.957857 5.935364 0.379090 -2.390832 5.937143 0.513343 -2.397204 -0.713601 0.446494 0.695561 -0.713618 0.446513 0.695554 0.000002 0.000002 -0.000000 -0.713533 0.446501 0.695556 -0.713595 0.446493 0.695557 -0.000000 -0.000002 0.000003 0.000002 0.000002 -0.000000 1.910709 -2.620636 -11.470337 -33.092963 26.716205 -39.115694 -0.974069 -45.883507 -0.542266 -12.294247 2.025146 11.483822 40.109886 -15.297148 -0.360470 5.639779 28.097844 11.338833 -0.000000 -0.000002 -0.000001 6.882220 2.840051 -61.140466 8.247983 7.640025 -89.897816 0.000001 -0.000003 0.000001 -2.345639 4.688864 -62.655238 8.754173 9.897094 -87.051239 0.000002 -0.000002 0.000001 -9.042501 10.045654 -60.766199 8.524096 9.508792 -66.893083 0.000001 -0.000002 0.000002 -17.946969 14.754947 -51.485925 8.868359 8.667063 -84.812023 0.000000 -0.000005 -0.000002 -0.000001 0.000003 -0.000001 -0.000001 0.000003 -0.000001 -0.000002 0.000003 -0.000001 0.000001 -0.000003 -0.000004 0.000002 -0.000003 -0.000005 0.000001 -0.000003 -0.000004 0.000000 -0.000002 -0.000004 0.566753 7.737483 8.535668 7.924999 -10.324532 54.386389 -21.978335 35.913435 17.197450 -28.822654 13.942758 -19.943449 -1.280307 -5.050510 10.849193 2.004133 -24.105257 -7.843169 0.000002 -0.000002 -0.000001 0.211452 0.815685 -2.336462 -0.194327 -0.106390 5.078168 -0.000000 0.000001 0.000001 0.070807 -5.447425 0.797605 1.252769 -4.117243 23.091475 0.000001 0.000000 0.000001 0.421956 -11.396017 2.605301 1.901130 -3.590598 26.163758 -0.000001 -0.000001 -0.000001 1.190093 -18.120618 12.397971 4.101164 -2.001877 19.111540 0.000000 -0.000000 0.000000 0.000000 0.000000 -0.000001 -0.000000 -0.000001 -0.000004 0.000000 0.000000 -0.000002 0.000002 0.000004 0.000002 0.000002 0.000005 0.000001 0.000002 0.000004 0.000002 0.000002 0.000005 0.000003 0.000001 0.000001 0.000000 0.000001 0.000001 0.000000 0.000001 0.000001 0.000000 0.000001 0.000001 0.000000 0.000001 0.000001 0.000000 0.000001 0.000001 0.000000 0.000001 0.000001 0.000000 -0.000001 0.000001 -0.000000 -0.000000 0.000000 -0.000000 
-2.482477 82.711159 1.479261 8.889713 -61.373423 9.546122 -0.000000 -0.000000 -0.000000 -42.607205 5.659167 29.401246 45.891215 -5.458042 1.368623 -8.077349 -4.217632 -21.868837 -0.000000 0.000000 -0.000000 0.000001 -0.000001 -0.000001 -31.112222 -14.609530 -39.795814 43.226092 3.934597 -4.112653 -16.527308 -0.542101 30.349239 0.000000 0.000000 0.000000 0.000001 -0.000000 -0.000000 16.788762 0.915081 -6.358025 6.115433 -0.075163 -1.452362 6.129980 0.180556 -1.352205 -0.685085 0.609030 0.558013 -0.685100 0.609030 0.558016 0.000001 -0.000003 0.000000 -0.684947 0.609032 0.558015 -0.685189 0.609029 0.558018 -0.000001 0.000002 -0.000001 0.000001 -0.000003 -0.000000 2.162014 -1.397873 -8.840538 -23.390633 21.293711 -43.542941 -4.680706 -39.032554 -3.086746 -19.753413 -0.903146 24.356318 40.109907 -15.297131 -0.360483 5.639756 28.097911 11.338838 -0.000000 0.000003 -0.000000 6.882177 2.840058 -61.140452 8.247996 7.640089 -89.897789 0.000002 0.000001 -0.000001 -2.345624 4.688887 -62.655245 8.754207 9.897091 -87.051253 -0.000000 0.000002 -0.000000 -9.042504 10.045695 -60.766192 8.524096 9.508821 -66.893001 0.000000 0.000001 -0.000000 -17.946947 14.755000 -51.485874 8.868377 8.667048 -84.812071 -0.000000 0.000000 -0.000001 -0.000002 0.000001 -0.000001 -0.000002 0.000001 -0.000001 -0.000003 0.000001 -0.000001 -0.000001 0.000000 0.000001 -0.000000 -0.000001 -0.000002 -0.000001 0.000000 0.000001 -0.000002 -0.000001 0.000001 0.533224 8.191949 8.164029 7.374764 -12.079972 56.553365 -22.915469 35.673600 17.714499 -27.690359 18.503659 -22.759049 1.063248 -2.650538 11.022681 1.217930 -24.851957 -5.710568 0.000001 -0.000003 0.000003 0.768412 1.297813 -8.681435 -0.645490 -0.157412 5.086958 -0.000000 0.000004 0.000002 -0.420714 -4.461219 -2.763118 0.886014 -3.921685 21.114249 0.000002 0.000001 0.000000 -1.034591 -10.598827 -0.361443 2.123700 -3.237604 24.756815 -0.000001 -0.000001 0.000001 -0.663163 -16.274022 14.447088 5.487976 -1.758969 19.638599 0.000001 0.000003 0.000000 0.000001 -0.000000 0.000000 -0.000001 -0.000000 0.000000 0.000001 -0.000000 0.000002 -0.000000 0.000003 0.000003 -0.000000 0.000004 0.000003 -0.000000 0.000003 0.000003 0.000000 0.000004 0.000003 -0.000001 0.000001 -0.000001 -0.000001 0.000001 -0.000001 -0.000001 0.000001 -0.000001 -0.000001 0.000001 -0.000001 -0.000001 0.000001 -0.000001 -0.000001 0.000001 -0.000001 -0.000001 0.000001 -0.000001 -0.000001 -0.000001 0.000001 -0.000000 -0.000000 -0.000000 
-2.432941 82.149864 1.590183 7.933765 -60.838810 8.419269 -0.000000 0.000000 0.000000 -43.607111 4.460272 29.587860 48.214633 -5.252099 1.392573 -8.935558 -4.723683 -21.928114 -0.000000 -0.000000 0.000000 0.000000 -0.000001 0.000001 -30.309378 -13.891707 -39.604705 44.679560 2.915947 -4.123783 -17.462745 -0.876891 31.066135 0.000000 -0.000000 0.000000 0.000001 -0.000001 -0.000004 18.500810 1.848465 -7.578362 6.394650 -0.612575 -0.413956 6.423677 -0.242365 -0.201163 -0.633146 0.760829 0.382494 -0.633154 0.760830 0.382489 0.000003 0.000001 0.000001 -0.633154 0.760813 0.382502 -0.633074 0.760830 0.382495 -0.000001 -0.000000 -0.000001 0.000003 0.000001 0.000002 2.557076 0.105024 -4.320083 -11.268443 13.601782 -48.959298 -10.177153 -35.307259 -6.702959 -30.445623 -3.300456 35.780124 40.109890 -15.297122 -0.360467 5.639759 28.097834 11.338847 0.000003 -0.000003 -0.000005 6.882187 2.840071 -61.140418 8.248036 7.640075 -89.897796 0.000001 -0.000005 0.000000 -2.345621 4.688870 -62.655204 8.754197 9.897113 -87.051239 -0.000001 0.000003 -0.000002 -9.042522 10.045659 -60.766144 8.524096 9.508819 -66.893070 0.000002 -0.000001 -0.000000 -17.946964 14.754974 -51.485901 8.868348 8.667037 -84.812009 0.000000 -0.000002 -0.000001 -0.000004 -0.000001 0.000002 -0.000004 -0.000001 0.000002 -0.000005 -0.000001 0.000002 0.000002 0.000001 -0.000000 0.000002 -0.000000 -0.000003 0.000002 0.000001 -0.000000 0.000002 0.000002 0.000001 0.464239 9.164545 7.474025 7.290698 -15.375838 59.090343 -25.138810 37.717305 19.845835 -25.774887 21.956925 -26.565958 3.481677 -0.050462 11.070173 0.409105 -25.783981 -3.320288 0.000002 0.000001 -0.000000 1.235106 1.602098 -14.056738 -1.056136 -0.204003 5.094597 0.000001 -0.000000 -0.000001 -0.739148 -3.667211 -5.490351 0.577107 -3.740449 19.443648 0.000000 -0.000001 -0.000001 -1.972188 -9.987324 -2.345109 2.303442 -2.975045 23.672175 0.000001 -0.000001 0.000001 -1.771272 -15.291381 15.629407 6.269874 -1.611083 19.936144 0.000000 -0.000002 0.000000 0.000001 -0.000001 0.000001 0.000001 0.000001 0.000001 0.000001 -0.000001 0.000001 0.000001 0.000000 0.000001 0.000001 0.000001 -0.000000 0.000001 0.000000 0.000001 0.000001 0.000001 -0.000000 0.000001 0.000001 -0.000001 0.000001 0.000001 -0.000001 0.000001 0.000001 -0.000001 0.000001 0.000001 -0.000001 0.000001 0.000001 -0.000001 0.000001 0.000001 -0.000001 0.000001 0.000001 -0.000001 -0.000000 0.000002 -0.000002 -0.000000 0.000000 0.000000 
